<svg width="120" height="120" viewBox="0 0 120 120" fill="none" xmlns="http://www.w3.org/2000/svg">
<path d="M87.444 88.3462C86.9857 88.3462 86.5112 88.3354 86.0364 88.3135L85.2384 88.2764L85.1278 79.4528L86.1011 79.5845C86.1018 79.5845 86.3932 79.6214 86.8686 79.6214C89.3442 79.6214 95.1991 78.6871 96.1686 70.0477C96.3566 61.8925 96.0476 48.9043 94.425 46.4446L94.3588 46.3443L94.3236 46.2294C94.3155 46.2019 93.3685 43.2768 91.2151 43.2768C89.8084 43.2768 88.0328 44.4702 86.0802 46.7275L85.8933 46.9438L83.2236 47.5043L82.272 34.6313L82.8879 34.4192C83.0187 34.3743 86.1268 33.3193 89.9382 33.3193C94.6772 33.3193 102.768 35.0989 103.708 47.0169C103.777 47.791 105.444 66.2496 104.886 72.569C104.884 73.1961 104.743 79.2606 100.294 83.7276C97.2418 86.7916 92.9185 88.3456 87.444 88.3456L87.444 88.3462Z" fill="white"/>
<path d="M56.5601 102.152C50.1211 102.152 34.4941 101.382 28.4681 94.2483C28.3396 94.0956 28.2689 93.9025 28.2695 93.703L28.3884 38.6471C28.3893 38.2261 28.7016 37.8699 29.1208 37.8127L85.0906 30.1712C85.1287 30.166 85.1673 30.1632 85.2053 30.1632C85.4021 30.1632 85.5945 30.2314 85.7479 30.3584C85.931 30.5101 86.0418 30.7318 86.0523 30.9682L88.8808 92.1047C88.8893 92.3019 88.8286 92.4968 88.7091 92.6542C86.6543 95.3477 79.643 101.661 58.9669 102.107C58.9734 102.108 58.0643 102.151 56.5603 102.151L56.5601 102.152Z" fill="white"/>
<path d="M58.1777 114.286C51.8371 114.286 36.1246 113.665 27.1767 107.909C27.1118 107.868 27.0535 107.818 27.0026 107.761C26.7514 107.479 24.6376 104.729 27.6094 95.0587C27.7158 94.7122 28.0325 94.4715 28.3968 94.4617C28.3968 94.4617 28.6528 94.455 28.6604 94.455C28.8885 94.455 29.1074 94.5465 29.2672 94.7092C30.3219 95.7856 31.6685 96.759 33.2693 97.6024C40.6039 101.468 51.7733 101.886 56.2346 101.886C57.8235 101.886 58.8442 101.836 58.9557 101.83C77.8881 101.422 85.2424 96.2372 87.9439 93.1834C88.1057 92.9999 88.3385 92.8967 88.5804 92.8967C88.6169 92.8967 88.6544 92.8993 88.6914 92.9037C88.9713 92.9405 89.2146 93.1141 89.34 93.3667C89.7821 94.2557 93.5561 102.175 90.0067 106.323C89.9879 106.345 89.9679 106.366 89.9466 106.387C89.6382 106.68 82.1362 113.579 60.3865 114.255C60.3596 114.256 59.5569 114.287 58.1787 114.287C58.1783 114.286 58.1778 114.286 58.1776 114.286L58.1777 114.286Z" fill="white"/>
<rect x="28.5885" y="16.4968" width="58.4765" height="28.972" rx="5" fill="white"/>
</svg>
