<svg width="120" height="120" viewBox="0 0 120 120" fill="none" xmlns="http://www.w3.org/2000/svg">
<path d="M61.9717 109H62.0273H40.9723C40.5747 107.998 48.9682 106.598 51.188 105.841C58.8398 103.232 59.7589 101.686 59.9006 91.1923C60.0484 80.1959 59.166 77.7319 54.6163 76.4382C39.381 72.1046 32.3865 64.586 34.3128 54.6127C34.9999 51.0537 41.2062 36.4461 42.5615 35H81.4375C82.7928 36.4461 89.0001 51.0537 89.6872 54.6127C91.6135 64.586 84.619 72.1046 69.3837 76.4382C64.833 77.7319 63.9506 80.1959 64.0994 91.1923C64.2401 101.686 65.1602 103.232 72.811 105.841C75.0318 106.598 83.4243 107.998 83.0267 109H61.9717Z" fill="white"/>
</svg>
