<svg width="120" height="120" viewBox="0 0 120 120" fill="none" xmlns="http://www.w3.org/2000/svg">
<path fill-rule="evenodd" clip-rule="evenodd" d="M60.5681 84.5616C66.0783 83.6945 81.2229 84.6326 85.3216 74.2921C89.5766 63.5574 80.8187 44.6551 77.7722 39.1663C57.7312 44.4788 42.5013 40.6864 44.0461 38.8937C45.1104 37.6576 53.4971 35.8601 76.3633 38.3024C76.3633 38.3024 69.2455 37.9261 61.5005 37.6179C52.5453 37.2615 45.9164 37.7587 45.4113 39.1488C45.2638 41.2092 67.0853 42.2243 77.7632 39.2075C80.5679 45.3975 89.6197 64.9388 84.5503 74.5442C81.1928 80.9062 66.0627 84.2934 60.0661 84.1751C52.8251 84.0318 39.992 80.9587 36.8557 76.0136C31.1416 67.0045 41.1037 40.8882 43.333 39.4875C40.0304 40.7472 30.1036 67.2244 35.6537 76.8237C38.8495 82.3509 55.4481 85.3671 60.5692 84.5613L60.5681 84.5616Z" fill="white" stroke="white" stroke-width="0.224988"/>
<ellipse cx="60.5032" cy="99.4239" rx="19.6123" ry="6.11703" fill="white"/>
<path d="M51.7609 37.2877L43.7269 39.2194L41.1277 42.4389L39.4737 47.5901L37.1107 53.3852L35.2204 64.3314L34.7478 70.4485L36.6381 76.8875L39.4737 78.8192L43.4906 81.0728L51.7609 83.6484L60.74 84.2923L72.3183 82.6826L78.2256 80.107L84.3693 75.9216L86.2596 69.1607L85.787 62.7217L83.4241 51.7754L80.3523 44.6926L76.3353 38.2536L51.7609 37.2877Z" fill="white"/>
<path d="M76.78 39.5414C76.78 39.6089 76.7489 39.7281 76.5754 39.9022C76.4005 40.0777 76.1164 40.2709 75.7061 40.4701C74.8876 40.8674 73.6711 41.2389 72.1272 41.5558C69.0477 42.1881 64.7706 42.5829 60.0306 42.5829C55.2906 42.5829 51.0136 42.1881 47.934 41.5558C46.3902 41.2389 45.1736 40.8674 44.3551 40.4701C43.9448 40.2709 43.6607 40.0777 43.4858 39.9022C43.3123 39.7281 43.2812 39.6089 43.2812 39.5414C43.2812 39.4739 43.3123 39.3548 43.4858 39.1807C43.6607 39.0052 43.9448 38.8119 44.3551 38.6128C45.1736 38.2155 46.3902 37.844 47.934 37.527C51.0136 36.8948 55.2906 36.5 60.0306 36.5C64.7706 36.5 69.0477 36.8948 72.1272 37.527C73.6711 37.844 74.8876 38.2155 75.7061 38.6128C76.1164 38.8119 76.4005 39.0052 76.5754 39.1807C76.7489 39.3548 76.78 39.4739 76.78 39.5414Z" fill="white" stroke="white"/>
<ellipse cx="60.2669" cy="90.0875" rx="4.72585" ry="10.3024" fill="white"/>
<path d="M84.6046 86.1689L62.118 109.893C61.9322 110.101 62.0558 110.413 62.3135 110.432C65.1012 110.737 76.3285 111.482 82.6012 104.348C88.8896 97.1832 85.9778 88.3656 85.1344 86.2536C85.0697 86.0487 84.7747 85.9908 84.6046 86.1689Z" fill="#FFEB3B"/>
</svg>
