<svg width="120" height="120" viewBox="0 0 120 120" fill="none" xmlns="http://www.w3.org/2000/svg">
<path d="M62.2378 90.4419L62.6247 75.9211L67.2045 69.9942C75.4722 59.2944 76.1708 54.7437 73.241 30.6524L71.7018 18L60.9084 18.069L50.114 18L48.5756 30.6524C45.6453 54.7437 46.3437 59.2944 54.6121 69.9942L59.1912 75.9211L59.5788 90.4419C59.8029 106.555 60.5082 106.145 58.4111 107.627C57.5235 108.711 55.0877 110.387 52.9989 111.351C50.9095 112.315 49.2941 113.682 49.6783 113.756C50.0624 113.831 51.2252 113.575 51.9933 113.818C52.7615 114.061 69.0546 114.061 69.8229 113.818C70.5911 113.575 71.7545 113.831 72.1386 113.756C72.5227 113.682 70.9074 112.315 68.818 111.351C66.7292 110.387 64.2627 108.954 63.3751 107.869C60.8142 106.254 62.2207 106.651 62.2381 90.4421L62.2378 90.4419Z" fill="white"/>
</svg>
