<svg width="120" height="120" viewBox="0 0 120 120" fill="none" xmlns="http://www.w3.org/2000/svg">
<path d="M64.5892 112.478C64.9745 111.674 64.9137 112.01 64.5892 112.478V112.478ZM47.4023 106.588C47.2672 106.197 47.1152 105.309 47.0646 104.615C46.9408 102.919 47.1983 102.255 48.4192 101.125C49.7636 99.8803 51.6695 99.0035 54.5638 98.2982C56.8555 97.7398 56.8909 97.7249 56.4064 97.5242C55.4436 97.1254 54.722 95.8339 54.908 94.8422C54.9599 94.566 55.2474 94.0537 55.5469 93.7037L56.0916 93.0674L55.5509 92.5106C54.7767 91.7134 54.6028 91.0874 54.9074 90.1934C55.041 89.8013 55.1332 89.4679 55.1124 89.4524C55.0915 89.437 54.4176 89.2749 53.6148 89.0922C50.4695 88.3766 47.3227 86.1296 46.115 83.7372C45.4719 82.4633 44.935 80.5455 44.6124 78.3702C44.3757 76.7732 44.3439 75.1468 44.3371 64.2874C44.329 51.1152 44.3387 51.318 43.4878 46.5987C43.0848 44.3631 42.2439 41.0982 41.7195 39.7334C40.9491 37.7281 41.0092 36.9875 42.0351 35.8464C43.8556 33.8215 50.1519 31.8144 56.072 31.3716C64.285 30.7574 71.8277 31.8092 77.0422 34.2959C78.102 34.8013 79.4457 35.9348 79.8022 36.6243C80.1347 37.2672 80.097 38.3124 79.7127 39.1062C79.3298 39.8972 79.2343 40.2065 78.618 42.6492C78.3625 43.6621 78.124 44.5943 78.0881 44.721C78.0327 44.9163 78.2962 44.9512 79.8237 44.9512C81.4184 44.9512 81.7124 44.9939 82.3919 45.3244C85.1297 46.6558 87.4535 51.4399 88.1557 57.191C88.2713 58.1373 88.31 59.8595 88.2609 61.8717C88.0682 69.7785 86.0547 75.2723 82.4686 77.6754C81.7291 78.171 80.8558 78.5408 79.0923 79.1053C77.784 79.5241 76.6167 79.9287 76.4983 80.0044C76.3799 80.0801 76.1567 80.6396 76.0023 81.2477C75.6458 82.6513 74.8257 84.3576 74.1033 85.1984C72.7587 86.7635 69.7247 88.6203 67.8552 89.022C67.1944 89.164 66.7142 89.3198 66.7881 89.3683C67.0696 89.5531 67.2163 90.3836 67.0988 91.1269C67.0043 91.7249 66.8436 92.0274 66.3574 92.5228L65.7367 93.1552L66.2128 93.6078C67.4114 94.7474 67.4402 95.9571 66.2962 97.1011L65.7589 97.6383L67.1086 97.8864C70.6031 98.5286 72.5772 99.3841 74.3548 101.027C75.7859 102.35 76.0562 102.928 76.038 104.629C76.0309 105.293 75.9557 106.094 75.871 106.409C75.4135 108.108 73.1923 109.824 70.0966 110.871C68.7744 111.318 66.207 111.901 65.2252 111.976C73.2464 114.922 80.3888 85.4571 64.5895 112.172C52.1687 114.324 46.0164 106.241 47.4026 106.588L47.4023 106.588ZM64.1994 103.763C66.3521 102.687 66.8186 100.622 65.2607 99.0642C64.9139 98.7174 64.5776 98.4337 64.5134 98.4337C64.3082 98.4337 64.003 99.3634 64.0241 99.9245C64.0353 100.223 64.1844 100.704 64.3554 100.994C64.7707 101.698 64.7528 102.207 64.3024 102.502C63.7471 102.866 61.4414 103.264 61.1053 103.054C60.7591 102.838 60.6293 102.838 60.763 103.054C60.8311 103.164 60.7668 103.194 60.5803 103.139C60.422 103.092 60.0162 103.008 59.6786 102.951C59.341 102.894 58.7325 102.684 58.3265 102.484L57.5883 102.12L57.9152 102.579C59.1843 104.362 61.9569 104.884 64.1994 103.763L64.1994 103.763ZM61.1236 101.119C61.1345 100.353 60.9909 99.7919 60.8121 99.9024C60.6502 100.002 60.6275 102.017 60.7864 102.176C60.9487 102.338 61.1137 101.821 61.1236 101.119L61.1236 101.119ZM57.8448 100.664C57.9671 100.371 58.0643 99.9395 58.0607 99.7047L58.0543 99.2777L57.7603 99.8148C57.4871 100.314 57.345 101.196 57.5379 101.196C57.5844 101.196 57.7225 100.957 57.8448 100.664H57.8448ZM57.1859 95.2797C57.1378 94.5187 56.8947 94.2639 56.5989 94.6647C56.299 95.071 56.3224 95.6231 56.6476 95.8121C57.075 96.0606 57.2258 95.9113 57.1859 95.2797ZM57.2002 90.7907C57.1876 90.5181 57.1344 90.1831 57.0819 90.0464C56.9955 89.8213 56.9578 89.8237 56.6828 90.0727C56.3449 90.3784 56.2729 91.1514 56.5709 91.2744C57.0057 91.4538 57.2231 91.2867 57.2002 90.7907L57.2002 90.7907ZM78.8904 70.526C80.0566 69.928 80.4837 69.1922 80.918 67.033C82.2017 60.6522 81.4375 55.226 79.0885 54.0435C78.7706 53.8834 78.2083 53.7751 77.6949 53.7749L76.8344 53.7746L76.7334 54.7338C76.6779 55.2613 76.6794 59.137 76.7367 63.3463L76.8409 70.9997L77.5726 70.913C77.9751 70.8654 78.568 70.6911 78.8903 70.5259L78.8904 70.526ZM44.4933 42.5783L44.9616 41.8631L43.9543 41.3232L42.947 40.7833L43.3325 42.3016C43.635 43.4928 43.7511 43.7631 43.8715 43.5567C43.9559 43.4119 44.2357 42.9716 44.4933 42.5783L44.4933 42.5783Z" fill="white"/>
<ellipse cx="61.5453" cy="105.145" rx="14.8364" ry="7.85455" fill="white"/>
<rect x="43.2183" y="38.8181" width="2.61818" height="6.10909" fill="white"/>
<path d="M59.1285 71.9818H59.2239C59.5863 71.9348 59.8343 71.6686 59.7962 71.3555L50.7535 18.7565C50.7344 18.6312 50.6008 17.9735 49.8568 17.4881C49.2273 17.081 48.3688 16.9244 47.2813 17.034H47.2623L31.5615 19.148C31.199 19.1949 30.951 19.4768 31.0083 19.7743C31.0655 20.0719 31.4089 20.2754 31.7714 20.2284L47.4531 18.1145C49.17 17.9422 49.3799 18.7252 49.399 18.8818L58.4608 71.512C58.4989 71.7939 58.7851 71.9818 59.1285 71.9818Z" fill="#FFA726"/>
</svg>
