<svg width="120" height="120" viewBox="0 0 120 120" fill="none" xmlns="http://www.w3.org/2000/svg">
<path d="M75.7692 22.6198C75.7692 22.3731 75.5802 22.1758 75.344 22.1758H49.4253C49.189 22.1758 49 22.3731 49 22.6198V110.114C49 110.188 49.0236 110.262 49.0709 110.336C49.0236 110.41 49 110.484 49 110.558C49 111.915 55.0012 113 62.3728 113C69.7444 113 75.7456 111.915 75.7456 110.558C75.7456 110.484 75.722 110.41 75.6747 110.336C75.722 110.262 75.7456 110.188 75.7456 110.114V22.6198H75.7692Z" fill="white"/>
<rect width="3.44605" height="96.264" rx="1.72303" transform="matrix(0.991884 -0.12715 0.116802 0.993155 54.8257 4.43787)" fill="#4DB6AC"/>
</svg>
