<svg width="120" height="120" viewBox="0 0 120 120" fill="none" xmlns="http://www.w3.org/2000/svg">
<path fill-rule="evenodd" clip-rule="evenodd" d="M32 68.8824H85.0251C85.0251 84.79 82.9299 95.395 69.1175 106H47.9075C34.8561 96.6716 32 84.79 32 68.8824Z" fill="white" stroke="white" stroke-width="6" stroke-linejoin="round"/>
<path fill-rule="evenodd" clip-rule="evenodd" d="M95.8534 85.0735C95.2703 88.0864 93.8093 90.6685 91.7919 92.2517C89.7744 93.835 87.3657 94.2897 85.0957 93.5158C82.8256 92.7419 80.8802 90.8029 79.6873 88.1252C78.4944 85.4475 78.1518 82.2506 78.7349 79.2377C79.318 76.2248 80.7789 73.6427 82.7964 72.0595C84.8138 70.4762 87.2225 70.0215 89.4926 70.7954C91.7627 71.5693 93.7081 73.5084 94.901 76.186C96.0939 78.8637 96.4364 82.0606 95.8534 85.0735Z" stroke="white" stroke-width="6" stroke-linecap="round" stroke-linejoin="round"/>
<path fill-rule="evenodd" clip-rule="evenodd" d="M52.9634 42C63.076 52.5507 43.6218 53.2413 52.9634 64.0319V42Z" fill="#FFE0B2"/>
<path d="M52.9634 42C63.076 52.5507 43.6218 53.2413 52.9634 64.0319" stroke="#FFE0B2" stroke-width="4" stroke-linecap="round"/>
<path d="M59.5399 42.329C69.6524 52.8796 50.1982 53.5703 59.5399 64.3609" stroke="#FFE0B2" stroke-width="4" stroke-linecap="round"/>
<path d="M66.7745 42.329C76.887 52.8796 57.4328 53.5703 66.7745 64.3609" stroke="#FFE0B2" stroke-width="4" stroke-linecap="round"/>
</svg>
