<svg width="120" height="120" viewBox="0 0 120 120" fill="none" xmlns="http://www.w3.org/2000/svg">
<path d="M86 25.4351C86 25.1934 85.6752 25 85.2692 25H40.7308C40.3248 25 40 25.1934 40 25.4351V111.172C40 111.244 40.0406 111.317 40.1218 111.389C40.0406 111.462 40 111.534 40 111.607C40 112.936 50.3124 114 62.9797 114C75.6469 114 85.9594 112.936 85.9594 111.607C85.9594 111.534 85.9188 111.462 85.8376 111.389C85.9188 111.317 85.9594 111.244 85.9594 111.172V25.4351H86Z" fill="white"/>
<path d="M53.6117 102.358H53.4745C52.9531 102.275 52.5963 101.809 52.6512 101.26L65.6593 9.07831C65.6867 8.85877 65.8788 7.70616 66.9491 6.85542C67.8547 6.1419 69.0897 5.86747 70.6539 6.05957H70.6814L93.2671 9.76439C93.7885 9.84672 94.1453 10.3407 94.0629 10.8621C93.9806 11.3835 93.4866 11.7403 92.9652 11.658L70.4069 7.95315C67.937 7.65127 67.6352 9.02343 67.6077 9.29786L54.5722 101.534C54.5173 102.028 54.1057 102.358 53.6117 102.358Z" fill="#EA80FC"/>
</svg>
