<svg width="120" height="120" viewBox="0 0 120 120" fill="none" xmlns="http://www.w3.org/2000/svg">
<path d="M60.857 97.8096C64.398 97.5749 74.765 95.9751 78.6686 85.1815C84.8546 68.0525 70.776 59.904 70.776 41.1965C70.776 28.5471 82.9348 23.2356 79.3939 23.2356H59.6198C59.6198 23.2356 40.9977 23.2356 39.8458 23.2356C36.3048 23.2356 48.4636 28.5471 48.4636 41.1965C48.4636 59.904 34.385 68.0525 40.571 85.1815C44.4746 95.9751 54.8416 97.5749 58.3826 97.8096V104.316C58.3826 105.02 58.3399 107.793 57.7853 109.627C48.7835 109.734 41.7656 110.672 41.7656 111.803C41.7656 113.019 49.7435 114 59.5985 114C69.4535 114 77.4314 113.019 77.4314 111.803C77.4314 110.672 70.4134 109.734 61.4116 109.627C60.857 107.793 60.8144 105.02 60.8144 104.316V97.8096H60.857Z" fill="white"/>
<path d="M90.358 22.2331L81.6762 7.15189C81.9535 7.10922 82.1242 6.87458 82.0175 6.59727C81.9109 6.27731 81.5482 6.02133 81.2069 6C80.8443 6 80.6523 6.23464 80.759 6.55461C80.7803 6.61861 80.823 6.6826 80.8443 6.74659L80.7803 6.78926L63.4167 8.81572C63.374 8.81572 63.3527 8.87972 63.3954 8.92238C63.9713 9.39167 66.659 11.6954 67.043 13.9992V14.0419H67.0643L67.0857 14.0632C67.7683 14.3832 70.9253 16.0043 72.1625 18.3081C72.1625 18.3081 72.1625 18.3294 72.1838 18.3294L72.2052 18.3508H72.2478C72.5891 18.4148 73.549 18.6494 74.6583 19.076L63.2674 43.4576C63.1394 43.7349 63.2674 44.0336 63.5234 44.1616C63.5873 44.1829 63.63 44.2042 63.694 44.2042C63.9073 44.2255 64.142 44.1189 64.2273 43.9056L75.6182 19.5027C76.5141 19.9506 77.4526 20.5266 78.1779 21.3158C78.1779 21.3158 78.1992 21.3158 78.1992 21.3371H78.2419C78.8818 21.2732 81.9749 21.1025 84.428 22.681H84.492C85.0252 22.425 87.5637 21.3371 90.2514 22.2757C90.3367 22.3184 90.4007 22.2757 90.358 22.2331Z" fill="#F8BBD0"/>
</svg>
