<svg width="120" height="120" viewBox="0 0 120 120" fill="none" xmlns="http://www.w3.org/2000/svg">
<path d="M91.0075 23.0132H29.7269C29.0134 23.0132 28.8762 23.6169 29.0957 24.4128C29.0957 24.4128 30.1934 28.5567 35.3802 31.6578C42.7075 36.0212 45.8086 37.5306 46.6044 42.7448C48.5255 55.204 56.1272 57.5641 58.7892 58.0032V101.748C58.7892 102.653 58.7343 106.221 58.0208 108.581C46.4398 108.718 37.411 109.926 37.411 111.38C37.411 112.944 47.6747 114.207 60.3535 114.207C73.0048 114.207 83.2959 112.944 83.2959 111.38C83.2959 109.926 74.2671 108.718 62.6861 108.581C61.9726 106.221 61.9177 102.653 61.9177 101.748V58.0032C64.5797 57.5641 72.1815 55.1765 74.1025 42.7448C74.8983 37.5306 77.9994 36.0212 85.3267 31.6578C90.5135 28.5567 91.6112 24.4128 91.6112 24.4128C91.8308 23.6169 91.721 23.0132 91.0075 23.0132Z" fill="white"/>
<path d="M71.7973 34.0179L104.51 15.6859C104.784 15.5213 104.756 15.137 104.482 15.0273C101.546 13.7374 89.553 9.07212 80.2498 14.7528C70.9191 20.461 71.0563 31.1364 71.2484 33.7435C71.2484 33.9905 71.5503 34.1551 71.7973 34.0179Z" fill="#8BC34A"/>
</svg>
