<svg width="120" height="120" viewBox="0 0 120 120" fill="none" xmlns="http://www.w3.org/2000/svg">
<path d="M63.5754 56.983L93.2689 24.3256C93.7628 23.7768 93.3786 22.926 92.6377 22.926H31.3845C30.671 22.926 30.2868 23.7768 30.7533 24.3256L60.4468 56.983V101.66C60.4468 102.566 60.392 106.134 59.6784 108.494C48.0974 108.631 39.0686 109.838 39.0686 111.293C39.0686 112.857 49.3324 114.12 62.0111 114.12C74.6624 114.12 84.9536 112.857 84.9536 111.293C84.9536 109.838 75.9248 108.631 64.3438 108.494C63.6302 106.134 63.5754 102.566 63.5754 101.66V56.983Z" fill="white"/>
<path d="M45.8196 17.9863C45.2158 17.9863 44.6121 18.0686 44.0358 18.2058C41.8129 13.6502 37.6141 7.44807 30.2319 4.12745C30.2319 4.12745 29.7928 3.9079 29.4634 4.04512C28.6676 4.31955 27.2131 4.84097 28.5304 4.95074C30.1495 5.08796 31.357 5.82892 32.4273 6.35034C37.3945 8.87511 41.1817 13.4856 43.7339 18.2881C40.9072 19.1663 38.849 21.8283 38.849 24.9568C38.849 28.7989 41.9775 31.9274 45.8196 31.9274C49.6616 31.9274 52.7901 28.7989 52.7901 24.9568C52.7901 21.1148 49.689 17.9863 45.8196 17.9863Z" fill="#EF5350"/>
</svg>
