<svg width="120" height="120" viewBox="0 0 120 120" fill="none" xmlns="http://www.w3.org/2000/svg">
<path d="M37.348 39.3914C37.348 39.3914 38.2752 42.5161 37.9186 43.5813C37.562 44.6466 31 50.9095 31 57.323V97.5183C31 97.5183 32.1234 102.862 33.1041 105.082C34.0848 107.301 35.4222 111.384 41.2174 112.094C46.6247 112.395 46.8863 113 57.5332 113C68.1802 113 68.536 112.719 73.849 112.094C79.6442 111.384 80.9816 107.301 81.9623 105.082C82.9431 102.862 84.0664 97.5183 84.0664 97.5183V57.323C84.0664 50.9095 77.5045 44.6466 77.1478 43.5813C76.7912 42.5161 77.7184 39.3914 77.7184 39.3914" fill="white"/>
<rect x="34.9587" y="33" width="45.1136" height="6.53351" rx="3.26676" fill="white"/>
<path d="M82.6144 99.0221C82.2241 99.0221 81.82 99.0127 81.4157 98.9935L80.736 98.9612L80.6418 91.2532L81.4708 91.3683C81.4713 91.3683 81.7195 91.4005 82.1243 91.4005C84.2327 91.4005 89.219 90.5843 90.0446 83.0373C90.2048 75.9134 89.9416 64.5674 88.5597 62.4187L88.5033 62.3311L88.4733 62.2308C88.4665 62.2068 87.6599 59.6515 85.826 59.6515C84.628 59.6515 83.1158 60.694 81.453 62.6659L81.2937 62.8548L79.0201 63.3445L78.2097 52.0992L78.7343 51.9139C78.8457 51.8747 81.4926 50.9531 84.7386 50.9531C88.7744 50.9531 95.6652 52.5077 96.4651 62.9187C96.5246 63.5949 97.9439 79.7195 97.4686 85.2399C97.4666 85.7877 97.3465 91.0853 93.5577 94.9875C90.9586 97.6641 87.2767 99.0216 82.6144 99.0216L82.6144 99.0221Z" fill="white"/>
<rect width="4.01699" height="96" rx="2" transform="matrix(0.97437 0.224951 -0.227758 0.973718 66.9712 7.0647)" fill="#9575CD"/>
</svg>
