<svg width="120" height="120" viewBox="0 0 120 120" fill="none" xmlns="http://www.w3.org/2000/svg">
<path d="M85.4059 53.4779H35.1703C34.4475 53.4779 33.8537 54.0975 33.9054 54.8203L39.4813 109.186C39.4813 109.212 39.5072 109.238 39.5072 109.264C40.1009 110.787 48.5165 112 60.2623 112C72.1371 112 80.5785 110.761 81.0432 109.212C81.0432 109.186 81.069 109.186 81.069 109.16L86.645 54.7945C86.7225 54.0975 86.1545 53.4779 85.4059 53.4779Z" fill="white"/>
<path d="M84.7346 32C73.7117 32 64.8055 40.9319 64.8055 51.929C64.8055 60.9384 70.7946 68.5538 79.0037 71.032C80.7333 65.5593 84.7862 53.1681 85.8446 53.5554C86.7739 53.891 86.6965 54.8203 86.6965 54.8203L84.9411 71.8839C95.8608 71.7806 104.689 62.9003 104.689 51.9549C104.664 40.9319 95.7575 32 84.7346 32Z" fill="#FF9800"/>
</svg>
