<svg width="120" height="120" viewBox="0 0 120 120" fill="none" xmlns="http://www.w3.org/2000/svg">
<path d="M54.8865 52.923C54.8865 52.7563 54.7532 52.6229 54.5865 52.6229H36.3C36.1334 52.6229 36 52.7563 36 52.923V112.05C36 112.1 36.0167 112.15 36.05 112.2C36.0167 112.25 36 112.3 36 112.35C36 113.267 40.234 114 45.4349 114C50.6358 114 54.8699 113.267 54.8699 112.35C54.8699 112.3 54.8532 112.25 54.8199 112.2C54.8532 112.15 54.8699 112.1 54.8699 112.05V52.923H54.8865Z" fill="white"/>
<path d="M84.7226 52.923C84.7226 52.7563 84.5892 52.6229 84.4226 52.6229H66.1361C65.9694 52.6229 65.8361 52.7563 65.8361 52.923V112.05C65.8361 112.1 65.8527 112.15 65.8861 112.2C65.8527 112.25 65.8361 112.3 65.8361 112.35C65.8361 113.267 70.0701 114 75.271 114C80.4719 114 84.7059 113.267 84.7059 112.35C84.7059 112.3 84.6893 112.25 84.6559 112.2C84.6893 112.15 84.7059 112.1 84.7059 112.05V52.923H84.7226Z" fill="white"/>
<path d="M76.9754 93.541H77.0883C77.5175 93.4696 77.8111 93.0651 77.7659 92.5893L67.0596 12.6689C67.037 12.4785 66.8789 11.4792 65.998 10.7416C65.2526 10.123 64.2362 9.88509 62.9487 10.0516H62.9262L44.3369 13.2637C43.9077 13.3351 43.6141 13.7633 43.6819 14.2154C43.7496 14.6675 44.1562 14.9768 44.5854 14.9054L63.152 11.6934C65.1849 11.4316 65.4333 12.6213 65.4559 12.8592L76.1848 92.8272C76.23 93.2555 76.5688 93.541 76.9754 93.541Z" fill="#81D4FA"/>
<path d="M42.4888 100.665H42.3719C41.9274 100.595 41.6232 100.198 41.67 99.7297L52.7589 21.1487C52.7823 20.9615 52.946 19.979 53.8584 19.2537C54.6304 18.6455 55.6832 18.4116 57.0166 18.5753H57.04L76.2934 21.7335C76.7379 21.8037 77.042 22.2248 76.9719 22.6693C76.9017 23.1138 76.4806 23.4179 76.0361 23.3477L56.8061 20.1895C54.7006 19.9322 54.4433 21.1019 54.4199 21.3358L43.3076 99.9636C43.2608 100.385 42.9099 100.665 42.4888 100.665Z" fill="#EA80FC"/>
</svg>
