<svg width="120" height="120" viewBox="0 0 120 120" fill="none" xmlns="http://www.w3.org/2000/svg">
<path fill-rule="evenodd" clip-rule="evenodd" d="M62.812 87.6393C66.5301 86.7565 76.7491 87.7116 79.5148 77.1832C82.3859 66.2534 76.4764 47.0077 74.4207 41.4191C60.8978 46.8282 50.6212 42.9669 51.6636 41.1416C52.3817 39.8831 58.0408 38.0528 73.4701 40.5395C73.4701 40.5395 68.6672 40.1564 63.4411 39.8426C57.3985 39.4798 52.9256 39.986 52.5847 41.4013C52.4852 43.4991 67.2096 44.5327 74.4147 41.4611C76.3072 47.7636 82.415 67.66 78.9944 77.4399C76.7288 83.9174 66.5195 87.3663 62.4733 87.2457C57.5873 87.0999 48.9279 83.9709 46.8117 78.936C42.956 69.7631 49.6781 43.1723 51.1824 41.7462C48.9539 43.0288 42.2556 69.987 46.0006 79.7608C48.1571 85.3885 59.3572 88.4594 62.8128 87.639L62.812 87.6393Z" fill="white" stroke="white" stroke-width="0.224988"/>
<ellipse cx="62.7686" cy="102.772" rx="13.2337" ry="6.22818" fill="white"/>
<path d="M56.8695 39.5066L51.4485 41.4734L49.6946 44.7514L48.5785 49.9962L46.9841 55.8966L45.7085 67.0417L45.3896 73.2699L46.6652 79.8259L48.5785 81.7927L51.289 84.0873L56.8695 86.7097L62.9283 87.3653L70.741 85.7263L74.727 83.1039L78.8725 78.8425L80.148 71.9587L79.8292 65.4027L78.2347 54.2576L76.162 47.046L73.4515 40.49L56.8695 39.5066Z" fill="white"/>
<path d="M73.5889 41.8012C73.5889 42.064 73.4158 42.408 72.8787 42.8014C72.3521 43.1871 71.5581 43.5554 70.5318 43.8733C68.4854 44.5073 65.6278 44.907 62.4496 44.907C59.2713 44.907 56.4137 44.5073 54.3673 43.8733C53.3411 43.5554 52.547 43.1871 52.0204 42.8014C51.4834 42.408 51.3103 42.064 51.3103 41.8012C51.3103 41.5385 51.4834 41.1944 52.0204 40.8011C52.547 40.4154 53.3411 40.0471 54.3673 39.7292C56.4137 39.0952 59.2713 38.6954 62.4496 38.6954C65.6278 38.6954 68.4854 39.0952 70.5318 39.7292C71.5581 40.0471 72.3521 40.4154 72.8787 40.8011C73.4158 41.1944 73.5889 41.5385 73.5889 41.8012Z" fill="white" stroke="white"/>
<ellipse cx="62.609" cy="93.2657" rx="3.18884" ry="10.4896" fill="white"/>
<path d="M59.7713 44.3786C59.237 44.3786 58.7026 44.4515 58.1926 44.5729C56.2252 40.541 52.509 35.0517 45.9753 32.1128C45.9753 32.1128 45.5867 31.9185 45.2952 32.0399C44.5909 32.2828 43.3036 32.7443 44.4694 32.8415C45.9025 32.9629 46.9712 33.6187 47.9184 34.0802C52.3147 36.3148 55.6665 40.3953 57.9254 44.6458C55.4236 45.4231 53.602 47.7791 53.602 50.548C53.602 53.9484 56.3709 56.7173 59.7713 56.7173C63.1718 56.7173 65.9407 53.9484 65.9407 50.548C65.9407 47.1476 63.1961 44.3786 59.7713 44.3786Z" fill="#EF5350"/>
</svg>
