<svg width="120" height="120" viewBox="0 0 120 120" fill="none" xmlns="http://www.w3.org/2000/svg">
<path d="M59.9275 114H59.975H41.9642C41.6241 112.7 48.804 110.884 50.7029 109.902C57.2484 106.517 58.0346 104.512 58.1559 90.8981C58.2822 76.6325 57.5274 73.436 53.6356 71.7577C40.603 66.1357 34.6198 56.3819 36.2676 43.4434C36.8553 38.8265 42.1644 19.876 43.3237 18H76.5789C77.7382 19.876 83.0481 38.8265 83.6358 43.4434C85.2836 56.3819 79.3004 66.1357 66.2678 71.7577C62.3751 73.436 61.6203 76.6325 61.7475 90.8981C61.8679 104.512 62.655 106.517 69.1997 109.902C71.0994 110.884 78.2784 112.7 77.9383 114H59.9275Z" fill="white"/>
</svg>
